# xmcd
#
# Track frame offsets:
#	150
#	26700
#	55231
#	78247
#	106648
#	128851
#	151349
#	184793
#	204072
#	246131
#	271481
#	318441
#
# Disc length: 4536 seconds
#
# Revision: 0
# Processed by: cddbd v1.5.1PL0 Copyright (c) Steve Scherf et al.
# Submitted via: dBpowerAMP V4.0
#
DISCID=9511b60c
DTITLE=Aynsley Lister - LIVE!
DYEAR=2004
DGENRE=Blues
TTITLE0=Aeroplane Blues
TTITLE1=As The Crow Flies
TTITLE2=Say Goodbye
TTITLE3=Balls of Steel
TTITLE4=Snake
TTITLE5=Everything I Need
TTITLE6=Angel 'O' Mine
TTITLE7=Now You're Gone
TTITLE8=Take Me To The River
TTITLE9=Runnin' Out On Me
TTITLE10=Sometimes It Gets 2 Me
TTITLE11=Fallin Down
EXTD=
EXTT0=
EXTT1=
EXTT2=
EXTT3=
EXTT4=
EXTT5=
EXTT6=
EXTT7=
EXTT8=
EXTT9=
EXTT10=
EXTT11=
PLAYORDER=
